<?xml version="1.0" encoding="UTF-8" standalone="no"?><!DOCTYPE svg PUBLIC "-//W3C//DTD SVG 1.1//EN" "http://www.w3.org/Graphics/SVG/1.1/DTD/svg11.dtd"><svg width="100%" height="100%" viewBox="0 0 333 161" version="1.1" xmlns="http://www.w3.org/2000/svg" xmlns:xlink="http://www.w3.org/1999/xlink" xml:space="preserve" xmlns:serif="http://www.serif.com/" style="fill-rule:evenodd;clip-rule:evenodd;stroke-linejoin:round;stroke-miterlimit:1.41421;"><clipPath id="_clip1"><rect x="0" y="0" width="332.391" height="160.842"/></clipPath><g clip-path="url(#_clip1)"><rect x="-38.957" y="-129.662" width="402" height="402" style="fill:#fff;"/></g><path d="M103.243,32.838l0,-17.2l16.4,0l5.8,-8.6l31.2,0l5.8,8.6l15.3,0l0,17.2l-6.6,0l0,-10.6l-12.5,0l-5.8,-8.6l-23.6,0l-5.8,8.6l-13.6,0l0,10.6l-6.6,0Zm37.3,30.1c5.7,0 10.8,-2.3 14.6,-6c3.7,-3.7 6,-8.9 6,-14.6c0,-5.7 -2.3,-10.8 -6,-14.6c-3.7,-3.7 -8.9,-6 -14.6,-6c-5.7,0 -10.8,2.3 -14.6,6c-3.7,3.7 -6,8.9 -6,14.6c0,5.7 2.3,10.8 6,14.6c3.8,3.7 8.9,6 14.6,6Zm-9.9,-10.7c2.6,2.6 6.2,4.1 9.9,4.1c3.9,0 7.4,-1.6 9.9,-4.1c2.5,-2.5 4.1,-6 4.1,-9.9c0,-3.9 -1.6,-7.4 -4.1,-9.9c-2.5,-2.5 -6,-4.1 -9.9,-4.1c-3.9,0 -7.4,1.6 -9.9,4.1c-2.5,2.5 -4.1,6 -4.1,9.9c0,3.9 1.6,7.3 4.1,9.9Zm127.2,-6.6c-0.9,1.1 -2.3,1.7 -3.9,1.7c-2.9,0 -5.2,-2.3 -5.2,-5.2c0,-2.9 2.3,-5.2 5.2,-5.2c1.5,0 2.9,0.7 3.9,1.7l22.3,0l0,-23.1l34.7,0l0,6.9l-27.5,0l0,16.2l24.6,0l0,6.9c-18,0.1 -36,0.1 -54.1,0.1Zm-3.8,-1.9c0.9,0 1.5,-0.7 1.5,-1.5c0,-0.9 -0.7,-1.5 -1.5,-1.5c-0.9,0 -1.5,0.7 -1.5,1.5c-0.1,0.8 0.6,1.5 1.5,1.5Zm-82.8,-1.3c0,6.7 0,13.3 0,20l-10.6,0l0,6.6l17.2,0c0,-6.5 0,-13.1 0,-19.6c7.4,0 16.5,-0.1 25.7,-0.1l12.5,19.7l8.3,0l-13.4,-21.5c3,-1.4 5.2,-3.5 6.7,-6.3c1.5,-2.8 2.2,-5.8 2.2,-9.1c0,-3.5 -0.8,-6.5 -2.4,-9c-1.6,-2.5 -3.9,-4.4 -6.7,-5.6c-2.9,-1.3 -6.1,-1.9 -9.7,-1.9l-14.2,0l0,26.8l-15.6,0Zm-61.4,9.4l0,10.6l10.6,0l0,6.6l-17.2,0l0,-17.2l6.6,0Zm177.5,-1l0,11.3l28.6,0l0,6.9l-35.7,0l0,-18.2l7.1,0Zm-15.5,13.6l0,-13.6l-7.2,0l0,9.5c-1.2,0.7 -2.7,1.2 -4.4,1.6c-1.8,0.4 -3.6,0.6 -5.5,0.6c-4,0 -7.6,-0.8 -10.8,-2.5c-3.2,-1.6 -5.6,-4 -7.3,-7c-1.7,-3 -2.6,-6.4 -2.6,-10.3c0,-4.1 0.9,-7.8 2.6,-10.9c1.7,-3.1 4.2,-5.5 7.3,-7.2c3.2,-1.7 6.8,-2.5 11,-2.5c1.9,0 4.1,0.3 6.5,1c2.4,0.7 4.4,1.4 5.9,2.3l2.4,-6.6c-2.1,-1.2 -4.5,-2.1 -7.2,-2.8c-2.7,-0.7 -5.5,-1.1 -8.5,-1.1c-5,0 -9.5,1.1 -13.7,3.4c-4.2,2.3 -7.5,5.5 -10,9.8c-2.5,4.3 -3.7,9.3 -3.7,15.1c0,5 1.1,9.4 3.4,13.4c2.3,4 5.5,7.1 9.8,9.4c3.3,1.8 7,2.9 11.1,3.3c0,16.6 0.1,33.1 0.1,49.7l-39.1,-40.2l-0.4,0l0,55l7.2,0l-0.1,-38l39.2,39.8l0.2,0l0,-66.3c1.9,-0.3 4,-0.7 6.1,-1.4c3.5,-1 6,-2.2 7.7,-3.5Zm-78,-9.9l0,14.5l-7.2,0l0,-14.5l7.2,0Zm9.1,-12.1c-1.1,0.1 -2.3,0.1 -3.5,0.1l-5.7,0l0,-19.9l8.3,0c2.4,0 4.3,0.5 5.9,1.5c1.6,1 2.7,2.3 3.4,3.8c0.7,1.5 1.1,3.1 1.1,4.7c0,2.6 -0.8,4.9 -2.5,6.9c-1.6,1.6 -3.9,2.6 -7,2.9Zm-107.5,-26.8l0,6.9l-27.5,0l0,16.2l24.6,0l0,6.9l-24.6,0l0,16.5l28.6,0l0,6.9l-35.8,0l0,-53.4l34.7,0Zm-56.1,74.4c-1.9,-1 -4,-1.9 -6.1,-2.5c-2.2,-0.6 -4.2,-1 -6.1,-1c-2.9,0 -5.2,0.7 -6.9,2c-1.7,1.3 -2.5,3.1 -2.5,5.4c0,2.2 1,4 3,5.4c2,1.4 4.8,2.8 8.5,4.2c2.8,1 5.1,2.1 7,3.2c1.9,1.2 3.5,2.8 4.7,4.8c1.3,2 1.9,4.6 1.9,7.8c0,2.9 -0.7,5.4 -2.1,7.8c-1.4,2.3 -3.5,4.1 -6.1,5.5c-2.6,1.3 -5.7,2 -9.3,2c-3.3,0 -6.5,-0.5 -9.5,-1.6c-3.1,-1.1 -5.7,-2.4 -8,-4l3.2,-5.7c1.8,1.4 4,2.5 6.6,3.5c2.6,1 4.9,1.4 7.2,1.4c2.9,0 5.4,-0.7 7.5,-2.2c2.1,-1.5 3.2,-3.7 3.2,-6.6c0,-2.5 -0.9,-4.4 -2.7,-5.9c-1.8,-1.5 -4.3,-2.8 -7.6,-4.1c-3,-1.1 -5.5,-2.2 -7.5,-3.3c-2,-1.1 -3.7,-2.6 -5.1,-4.5c-1.4,-1.9 -2.1,-4.3 -2.1,-7.1c0,-4.2 1.5,-7.6 4.4,-10.2c2.9,-2.6 6.7,-3.9 11.4,-4.1c5.8,0 11.1,1.4 16,4.3l-3,5.5Zm6.3,-22.2l0,19.5l13.5,0l0,46.5l7.2,0l0,-46.5l14.3,0l0,-6.9l-27.8,0l0,-16.1l0,-18.5c1,-0.9 1.6,-2.3 1.6,-3.8c0,-2.9 -2.3,-5.2 -5.2,-5.2c-2.9,0 -5.2,2.3 -5.2,5.2c0,1.4 0.6,2.7 1.5,3.6c0,4.8 0,9.7 0,14.5c-1.2,0.7 -2.7,1.2 -4.4,1.6c-1.8,0.4 -3.6,0.6 -5.5,0.6c-4,0 -7.6,-0.8 -10.8,-2.5c-3.1,-1.6 -5.6,-4 -7.3,-7c-1.7,-3 -2.6,-6.4 -2.6,-10.3c0,-4.1 0.9,-7.8 2.6,-10.9c1.7,-3.1 4.2,-5.5 7.3,-7.2c3.2,-1.7 6.8,-2.5 11,-2.5c1.9,0 4.1,0.3 6.5,1c2.4,0.7 4.4,1.4 5.9,2.3l2.4,-6.6c-2.1,-1.2 -4.5,-2.1 -7.2,-2.8c-2.7,-0.7 -5.5,-1.1 -8.5,-1.1c-5,0 -9.5,1.1 -13.7,3.4c-4.2,2.3 -7.5,5.5 -10,9.8c-2.5,4.3 -3.7,9.3 -3.7,15.1c0,5 1.1,9.4 3.4,13.4c2.3,4 5.5,7.1 9.8,9.4c4.2,2.3 9.1,3.4 14.7,3.4c3,0 6.2,-0.5 9.6,-1.6l0.6,0.2Zm113.4,12.7c0.9,-1.1 2.3,-1.7 3.9,-1.7c2.9,0 5.2,2.3 5.2,5.2c0,2.9 -2.3,5.2 -5.2,5.2c-1.5,0 -2.9,-0.7 -3.9,-1.7l-20.6,0l0,17l21.5,0l0,6.9l-21.5,0l0,22.7l-7.2,0l0,-53.4l27.8,0l0,-0.2Zm3.9,1.9c-0.9,0 -1.5,0.7 -1.5,1.5c0,0.9 0.7,1.5 1.5,1.5c0.9,0 1.5,-0.7 1.5,-1.5c0,-0.8 -0.6,-1.5 -1.5,-1.5Zm105.2,5.1c-1,-0.9 -1.6,-2.3 -1.6,-3.7c0,-2.9 2.3,-5.2 5.2,-5.2c2.9,0 5.2,2.3 5.2,5.2c0,1.5 -0.6,2.8 -1.6,3.7c0,15.4 0,30.9 0,46.3l-7.2,0c0,-15.4 0,-30.8 0,-46.3Zm2.1,-3.7c0,-0.9 0.7,-1.5 1.5,-1.5c0.9,0 1.5,0.7 1.5,1.5c0,0.9 -0.7,1.5 -1.5,1.5c-0.8,0 -1.5,-0.7 -1.5,-1.5Zm-183.4,19.8l0,-23.1l34.7,0l0,6.9l-27.5,0l0,16.2l24.6,0l0,6.9c-16.1,0 -32.1,0 -48.2,0l0,-6.9l16.4,0Zm7.1,12l0,11.3l28.6,0l0,6.9l-35.7,0l0,-18.3l7.1,0l0,0.1Zm99.1,4.2l5.5,14l8.3,0l-23.3,-55.5l-0.5,0l-23.3,55.6l7.1,0l5.7,-14l20.5,0l0,-0.1Zm-2.4,-6.2l-15.5,0l7.9,-19.5l7.6,19.5Zm122.4,-23.6c-1.9,-1 -4,-1.9 -6.1,-2.5c-2.2,-0.6 -4.2,-1 -6.1,-1c-2.9,0 -5.2,0.7 -6.9,2c-1.7,1.3 -2.5,3.1 -2.5,5.4c0,2.2 1,4 3,5.4c2,1.4 4.8,2.8 8.5,4.2c2.8,1 5.1,2.1 7,3.2c1.9,1.2 3.5,2.8 4.7,4.8c1.3,2 1.9,4.6 1.9,7.8c0,2.9 -0.7,5.4 -2.1,7.8c-1.4,2.3 -3.5,4.1 -6.1,5.5c-2.6,1.3 -5.7,2 -9.3,2c-3.3,0 -6.5,-0.5 -9.5,-1.6c-3.1,-1.1 -5.7,-2.4 -8,-4l3.2,-5.7c1.8,1.4 4,2.5 6.6,3.5c2.6,1 4.9,1.4 7.2,1.4c2.9,0 5.4,-0.7 7.5,-2.2c2.1,-1.5 3.2,-3.7 3.2,-6.6c0,-2.5 -0.9,-4.4 -2.7,-5.9c-1.8,-1.5 -4.3,-2.8 -7.6,-4.1c-3,-1.1 -5.5,-2.2 -7.5,-3.3c-2,-1.1 -3.7,-2.6 -5.1,-4.5c-1.4,-1.9 -2.1,-4.3 -2.1,-7.1c0,-4.2 1.5,-7.6 4.4,-10.2c2.9,-2.6 6.7,-3.9 11.4,-4.1c5.8,0 11.1,1.4 16,4.3l-3,5.5Zm-263.7,-46.3c-0.9,0 -1.5,-0.7 -1.5,-1.5c0,-0.9 0.7,-1.5 1.5,-1.5c0.9,0 1.5,0.7 1.5,1.5c0,0.8 -0.7,1.5 -1.5,1.5Z"/></svg>